<svg height="512pt" viewBox="-71 0 512 512" width="512pt" xmlns="http://www.w3.org/2000/svg"><path d="m354.402344 466.5625h-338.988282c-4.351562 0-7.878906-3.527344-7.878906-7.878906v-443.269532c0-4.351562 3.527344-7.878906 7.878906-7.878906h338.988282c4.351562 0 7.878906 3.527344 7.878906 7.878906v443.269532c0 4.351562-3.527344 7.878906-7.878906 7.878906zm0 0" fill="#d3d3d8"/><path d="m354.402344 466.5625h-18.441406v-459.027344h18.441406c4.351562 0 7.878906 3.527344 7.878906 7.878906v443.269532c0 4.351562-3.527344 7.878906-7.878906 7.878906zm0 0" fill="#babac0"/><path d="m326.039062 504.464844h-282.261718c-5.480469 0-9.921875-4.445313-9.921875-9.925782v-27.976562h302.109375v27.976562c-.003906 5.480469-4.445313 9.925782-9.925782 9.925782zm0 0" fill="#7c8388"/><path d="m326.039062 504.464844h-12.746093v-37.902344h22.667969v27.976562c0 5.480469-4.441407 9.925782-9.921876 9.925782zm0 0" fill="#575f64"/><path d="m301.679688 281.300781c0 64.492188-52.28125 116.773438-116.773438 116.773438-64.488281 0-116.769531-52.28125-116.769531-116.773438 0-64.488281 52.28125-116.769531 116.769531-116.769531 64.492188 0 116.773438 52.28125 116.773438 116.769531zm0 0" fill="#7c8388"/><path d="m301.679688 281.296875c0 64.496094-52.277344 116.773437-116.769532 116.773437-19.855468 0-38.554687-4.953124-54.921875-13.707031 8.601563 2.03125 17.5625 3.09375 26.785157 3.09375 64.496093 0 116.773437-52.277343 116.773437-116.761719 0-44.640624-25.050781-83.421874-61.851563-103.066406 51.582032 12.097656 89.984376 58.398438 89.984376 113.667969zm0 0" fill="#575f64"/><path d="m264.363281 281.300781c0 43.882813-35.574219 79.457031-79.457031 79.457031s-79.457031-35.574218-79.457031-79.457031c0-43.882812 35.574219-79.457031 79.457031-79.457031s79.457031 35.574219 79.457031 79.457031zm0 0" fill="#ececf1"/><path d="m264.363281 281.296875c0 43.886719-35.566406 79.464844-79.453125 79.464844-20.578125 0-39.316406-7.816407-53.425781-20.636719 9.277344 3.796875 19.433594 5.886719 30.074219 5.886719 43.875 0 79.453125-35.578125 79.453125-79.453125 0-23.320313-10.046875-44.300782-26.050781-58.839844 28.984374 11.859375 49.402343 40.332031 49.402343 73.578125zm0 0" fill="#dfdfe5"/><path d="m362.28125 96.046875h-354.746094v-80.632813c0-4.351562 3.527344-7.878906 7.878906-7.878906h338.988282c4.351562 0 7.878906 3.527344 7.878906 7.878906zm0 0" fill="#7c8388"/><path d="m362.277344 15.410156v80.632813h-26.316406v-88.507813h18.4375c4.351562 0 7.878906 3.523438 7.878906 7.875zm0 0" fill="#575f64"/><path d="m322.902344 70.5h-119.167969c-2.773437 0-5.023437-2.25-5.023437-5.023438v-25.464843c0-2.773438 2.25-5.023438 5.023437-5.023438h119.167969c2.773437 0 5.023437 2.25 5.023437 5.023438v25.464843c0 2.773438-2.25 5.023438-5.023437 5.023438zm0 0" fill="#05e2bd"/><path d="m322.902344 70.5h-21.222656v-35.511719h21.222656c2.773437 0 5.023437 2.25 5.023437 5.023438v25.464843c0 2.773438-2.25 5.023438-5.023437 5.023438zm0 0" fill="#05cea7"/><path d="m150.882812 51.789062c0 9.808594-7.949218 17.757813-17.753906 17.757813-9.808594 0-17.757812-7.949219-17.757812-17.757813 0-9.804687 7.949218-17.753906 17.757812-17.753906 9.804688 0 17.753906 7.949219 17.753906 17.753906zm0 0" fill="#05e2bd"/><path d="m150.886719 51.792969c0 9.804687-7.957031 17.753906-17.765625 17.753906-7.976563 0-14.726563-5.265625-16.96875-12.507813 2.160156.933594 4.550781 1.457032 7.054687 1.457032 9.804688 0 17.753907-7.949219 17.753907-17.753906 0-1.828126-.273438-3.585938-.792969-5.246094 6.308593 2.722656 10.71875 8.992187 10.71875 16.296875zm0 0" fill="#05cea7"/><path d="m86.265625 51.789062c0 9.808594-7.949219 17.757813-17.753906 17.757813-9.808594 0-17.757813-7.949219-17.757813-17.757813 0-9.804687 7.949219-17.753906 17.757813-17.753906 9.804687 0 17.753906 7.949219 17.753906 17.753906zm0 0" fill="#ef6161"/><path d="m86.269531 51.792969c0 9.804687-7.957031 17.753906-17.765625 17.753906-7.976562 0-14.726562-5.265625-16.96875-12.507813 2.160156.933594 4.550782 1.457032 7.054688 1.457032 9.804687 0 17.753906-7.949219 17.753906-17.753906 0-1.828126-.269531-3.585938-.792969-5.246094 6.308594 2.722656 10.71875 8.992187 10.71875 16.296875zm0 0" fill="#ea4444"/><path d="m264.363281 281.296875c0 43.886719-35.566406 79.464844-79.453125 79.464844-43.890625 0-79.457031-35.578125-79.457031-79.464844 0-.664063.011719-1.324219.03125-1.980469 4.640625 4.5625 8.410156 10.019532 17.433594 10.019532 15.5 0 15.5-16.078126 30.996093-16.078126 15.492188 0 15.492188 16.078126 30.996094 16.078126 15.492188 0 15.492188-16.078126 30.984375-16.078126 15.503907 0 15.503907 16.078126 30.996094 16.078126 9.03125 0 12.800781-5.457032 17.441406-10.019532.019531.65625.03125 1.316406.03125 1.980469zm0 0" fill="#05e2bd"/><path d="m264.363281 281.296875c0 17.160156-5.628906 34.066406-15.957031 47.777344-1.574219 2.085937-3.25 4.097656-5.027344 6.015625-21.894531 23.691406-57.597656 32.070312-87.472656 20.121094-6.148438-2.460938-12.011719-5.652344-17.410156-9.484376-2.140625-1.519531-4.667969-4.644531-7.011719-5.601562 9.273437 3.796875 19.433594 5.886719 30.074219 5.886719 36.742187 0 67.667968-24.949219 76.742187-58.828125 2.300781 1.304687 5.03125 2.152344 8.589844 2.152344 9.023437 0 12.789063-5.449219 17.441406-10.019532.019531.65625.03125 1.316406.03125 1.980469zm0 0" fill="#05cea7"/><path d="m354.402344 0h-338.988282c-8.5 0-15.414062 6.914062-15.414062 15.414062v443.269532c0 8.5 6.914062 15.414062 15.414062 15.414062h10.902344v20.441406c0 9.628907 7.835938 17.460938 17.460938 17.460938h282.261718c9.625 0 17.457032-7.832031 17.457032-17.460938v-20.441406h10.90625c8.5 0 15.414062-6.914062 15.414062-15.414062v-270.761719c0-4.164063-3.375-7.539063-7.535156-7.539063-4.164062 0-7.539062 3.375-7.539062 7.539063v270.761719c0 .1875-.152344.34375-.339844.34375h-338.988282c-.191406 0-.34375-.15625-.34375-.34375v-355.105469h339.675782v35.980469c0 4.164062 3.371094 7.535156 7.535156 7.535156 4.160156 0 7.535156-3.371094 7.535156-7.535156v-124.144532c0-8.5-6.914062-15.414062-15.414062-15.414062zm-313.015625 474.097656h287.039062v20.441406c0 1.316407-1.070312 2.386719-2.386719 2.386719h-282.261718c-1.316406 0-2.390625-1.070312-2.390625-2.386719zm313.359375-385.589844h-339.675782v-73.09375c0-.1875.152344-.34375.339844-.34375h338.992188c.1875 0 .339844.152344.339844.34375v73.09375zm0 0"/><path d="m322.902344 27.453125h-119.167969c-6.925781 0-12.558594 5.632813-12.558594 12.558594v25.464843c0 6.925782 5.632813 12.558594 12.558594 12.558594h119.164063c6.925781 0 12.5625-5.632812 12.5625-12.558594v-25.464843c0-6.925781-5.632813-12.558594-12.558594-12.558594zm-2.511719 35.511719h-114.144531v-20.441406h114.144531zm0 0"/><path d="m133.128906 26.5c-13.949218 0-25.292968 11.34375-25.292968 25.289062 0 13.949219 11.34375 25.292969 25.292968 25.292969 13.945313 0 25.289063-11.34375 25.289063-25.292969 0-13.945312-11.34375-25.289062-25.289063-25.289062zm0 35.511719c-5.636718 0-10.222656-4.585938-10.222656-10.222657 0-5.636718 4.585938-10.21875 10.222656-10.21875 5.632813 0 10.21875 4.582032 10.21875 10.21875 0 5.636719-4.585937 10.222657-10.21875 10.222657zm0 0"/><path d="m68.511719 26.5c-13.945313 0-25.292969 11.34375-25.292969 25.289062 0 13.949219 11.347656 25.292969 25.292969 25.292969 13.945312 0 25.292969-11.34375 25.292969-25.292969 0-13.945312-11.347657-25.289062-25.292969-25.289062zm0 35.511719c-5.636719 0-10.21875-4.585938-10.21875-10.222657 0-5.636718 4.582031-10.21875 10.21875-10.21875s10.222656 4.582032 10.222656 10.21875c0 5.636719-4.585937 10.222657-10.222656 10.222657zm0 0"/><path d="m90.242188 350.09375c-3.203126 2.65625-3.640626 7.410156-.980469 10.609375 23.714843 28.539063 58.574219 44.90625 95.648437 44.90625 68.539063 0 124.304688-55.765625 124.304688-124.308594 0-68.539062-55.765625-124.304687-124.304688-124.304687-68.542968 0-124.308594 55.765625-124.308594 124.304687 0 12.742188 1.921876 25.308594 5.710938 37.355469 1.25 3.96875 5.476562 6.171875 9.449219 4.925781 3.972656-1.25 6.175781-5.480469 4.929687-9.449219-3.328125-10.582031-5.019531-21.625-5.019531-32.832031 0-60.230469 49.003906-109.234375 109.238281-109.234375 60.230469 0 109.234375 49.003906 109.234375 109.234375 0 60.234375-49.003906 109.238281-109.234375 109.238281-32.578125 0-63.214844-14.386718-84.054687-39.46875-2.660157-3.199218-7.414063-3.636718-10.613281-.976562zm0 0"/><path d="m184.90625 368.296875c47.96875 0 86.992188-39.027344 86.992188-86.992187 0-47.96875-39.023438-86.996094-86.992188-86.996094s-86.992188 39.027344-86.992188 86.996094c0 47.964843 39.023438 86.992187 86.992188 86.992187zm0-158.917969c38.007812 0 69.207031 29.644532 71.738281 67.019532-3.617187 3.738281-5.515625 5.402343-9.753906 5.402343-4.359375 0-6.238281-1.757812-10.066406-5.730469-4.210938-4.367187-9.976563-10.34375-20.929688-10.34375-10.949219 0-16.710937 5.976563-20.917969 10.34375-3.832031 3.972657-5.707031 5.730469-10.066406 5.730469-4.367187 0-6.246094-1.757812-10.082031-5.734375-4.207031-4.367187-9.96875-10.34375-20.914063-10.34375-10.949218 0-16.710937 5.976563-20.917968 10.34375-3.835938 3.972656-5.714844 5.734375-10.082032 5.734375-4.230468 0-6.128906-1.664062-9.742187-5.402343 2.53125-37.375 33.726563-67.019532 71.734375-67.019532zm-61.992188 87.492188c10.957032 0 16.722657-5.980469 20.929688-10.347656 3.832031-3.972657 5.707031-5.730469 10.066406-5.730469s6.238282 1.757812 10.066406 5.730469c4.210938 4.367187 9.976563 10.347656 20.929688 10.347656s16.710938-5.980469 20.917969-10.34375c3.832031-3.976563 5.710937-5.734375 10.070312-5.734375 4.363281 0 6.246094 1.757812 10.078125 5.734375 4.207032 4.363281 9.96875 10.34375 20.917969 10.34375 3.28125 0 6.085937-.542969 8.53125-1.414063-6.59375 32.902344-35.703125 57.765625-70.515625 57.765625s-63.917969-24.863281-70.515625-57.761718c2.445313.867187 5.25 1.410156 8.523437 1.410156zm0 0"/></svg>