<svg id="Capa_1" enable-background="new 0 0 512 512" height="512" viewBox="0 0 512 512" width="512" xmlns="http://www.w3.org/2000/svg"><g><g><g><g><g><g><g><g><g><circle cx="256" cy="256" fill="#ffce00" r="256"/></g></g></g></g></g></g></g></g><path d="m170.771 382.732 126.034 126.034c121.99-19.541 215.195-125.269 215.195-252.766 0-12.722-.928-25.228-2.72-37.452l-106.095-106.095z" fill="#ffa300"/><g><path d="m341.465 363.039-85.47 70.961-85.461-70.961c-29.689-24.651-46.719-60.263-46.719-97.698v-142.304l132.18-47.037 132.189 47.036v142.304c.001 37.436-17.029 73.048-46.719 97.699z" fill="#7584f2"/><path d="m255.995 76v.005 357.983.012l85.47-70.961c29.689-24.651 46.719-60.263 46.719-97.698v-142.304z" fill="#606aea"/><path d="m255.995 453.497-95.043-78.917c-33.134-27.511-52.137-67.327-52.137-109.239v-152.888l147.18-52.374 147.189 52.374v152.888c0 41.912-19.003 81.728-52.137 109.239zm-117.18-319.876v131.72c0 32.961 15.054 64.365 41.301 86.158l75.879 63.005 75.888-63.005 9.582 11.541-9.582-11.541c26.248-21.793 41.301-53.196 41.301-86.158v-131.72l-117.189-41.7z" fill="#4855b7"/><path d="m255.995 60.079v.005 31.843-.005l117.189 41.699v131.72c0 32.961-15.054 64.365-41.301 86.158l9.582 11.541-9.582-11.541-75.888 63.005v-.012 38.993.012l95.052-78.917c33.134-27.511 52.137-67.327 52.137-109.239v-152.888z" fill="#27488f"/></g><g><g><path d="m177.382 222.771c0-22.503 18.243-40.746 40.746-40.746 17.183 0 31.878 10.622 37.867 25.67 5.99-15.048 20.693-25.67 37.877-25.67 22.504 0 40.746 18.243 40.746 40.746 0 55.737-78.623 93.205-78.623 93.205s-78.613-40.173-78.613-93.205z" fill="#fff"/></g></g><g><g><path d="m293.872 182.024c-17.183 0-31.887 10.622-37.877 25.67-.005-.011.005-.022 0-.033v108.307c.002.001 0 .007 0 .007s78.623-37.468 78.623-93.205c0-22.503-18.243-40.746-40.746-40.746z" fill="#e9edf5"/></g></g></g></svg>